<?xml version="1.0" encoding="utf-8"?>
<svg viewBox="0 0 500 500" xmlns="http://www.w3.org/2000/svg">
  <path fill-rule="evenodd" clip-rule="evenodd" d="M 175.716 159.485 C 176.306 158.585 176.526 158.125 176.976 157.115 C 173.656 155.855 173.126 151.125 176.406 149.315 C 175.406 148.055 173.996 147.325 172.666 147.325 C 171.706 147.325 171.046 147.575 170.456 147.805 C 169.956 147.995 169.506 148.165 168.946 148.165 C 168.346 148.165 167.816 147.975 167.256 147.775 C 166.646 147.555 166.006 147.325 165.206 147.325 C 163.716 147.325 162.126 148.235 161.116 149.795 C 159.696 151.995 159.946 156.115 162.236 159.635 C 163.056 160.895 164.156 162.305 165.586 162.325 C 166.186 162.335 166.576 162.155 167.006 161.965 C 167.496 161.745 168.026 161.505 168.956 161.505 C 169.886 161.495 170.406 161.745 170.896 161.965 C 171.316 162.155 171.696 162.335 172.286 162.325 C 173.736 162.305 174.896 160.745 175.716 159.485 Z" style="fill: rgb(255, 255, 255);" transform="matrix(1, 0, 0, 1, 0, 1.4210854715202004e-14)"/>
  <path fill-rule="evenodd" clip-rule="evenodd" d="M 172.456 142.325 C 172.616 143.425 172.166 144.515 171.576 145.275 C 170.946 146.095 169.846 146.735 168.786 146.695 C 168.596 145.635 169.086 144.545 169.686 143.815 C 170.356 143.015 171.486 142.395 172.456 142.325 Z" style="fill: rgb(255, 255, 255);" transform="matrix(1, 0, 0, 1, 0, 1.4210854715202004e-14)"/>
</svg>