<svg xmlns="http://www.w3.org/2000/svg" xmlns:xlink="http://www.w3.org/1999/xlink" width="500" zoomAndPan="magnify" viewBox="0 0 375 374.999991" height="500" preserveAspectRatio="xMidYMid meet" version="1.0"><defs><clipPath id="3ea85d1640"><path d="M 160.382812 160.316406 L 214.382812 160.316406 L 214.382812 214.316406 L 160.382812 214.316406 Z M 160.382812 160.316406 " clip-rule="nonzero"/></clipPath></defs><g clip-path="url(#3ea85d1640)"><path fill="#d88653" d="M 214.484375 213.761719 L 188.160156 174.273438 L 196.796875 161.3125 C 196.96875 161.058594 196.898438 160.714844 196.644531 160.546875 C 196.390625 160.378906 196.046875 160.445312 195.878906 160.699219 L 187.496094 173.277344 L 179.109375 160.699219 C 178.941406 160.445312 178.597656 160.378906 178.34375 160.546875 C 178.089844 160.714844 178.023438 161.058594 178.191406 161.3125 L 186.828125 174.273438 L 160.503906 213.761719 C 160.390625 213.933594 160.378906 214.152344 160.476562 214.332031 C 160.570312 214.507812 160.757812 214.621094 160.964844 214.621094 L 214.023438 214.621094 C 214.230469 214.621094 214.417969 214.507812 214.511719 214.328125 C 214.609375 214.148438 214.597656 213.933594 214.484375 213.761719 Z M 191.363281 212.734375 L 188.828125 210.199219 L 191.363281 210.199219 Z M 186.941406 209.648438 C 186.941406 209.71875 186.957031 209.792969 186.984375 209.859375 C 187.011719 209.929688 187.054688 209.988281 187.105469 210.039062 L 190.582031 213.515625 L 176.734375 213.515625 L 186.941406 198.207031 Z M 192.46875 213.515625 L 192.46875 209.648438 C 192.46875 209.34375 192.222656 209.09375 191.917969 209.09375 L 188.046875 209.09375 L 188.046875 198.207031 L 198.253906 213.515625 Z M 199.582031 213.515625 L 187.953125 196.074219 C 187.945312 196.066406 187.933594 196.0625 187.925781 196.050781 C 187.824219 195.921875 187.671875 195.832031 187.496094 195.832031 C 187.316406 195.832031 187.164062 195.921875 187.0625 196.050781 C 187.054688 196.0625 187.042969 196.066406 187.035156 196.074219 L 175.40625 213.515625 L 161.996094 213.515625 L 187.496094 175.269531 L 212.992188 213.515625 Z M 199.582031 213.515625 " fill-opacity="1" fill-rule="nonzero"/></g></svg>