<svg xmlns="http://www.w3.org/2000/svg" xmlns:xlink="http://www.w3.org/1999/xlink" width="500" zoomAndPan="magnify" viewBox="0 0 375 374.999991" height="500" preserveAspectRatio="xMidYMid meet" version="1.0"><defs><g/><clipPath id="a09a65cfe6"><path d="M 160.382812 160.316406 L 214.382812 160.316406 L 214.382812 214.316406 L 160.382812 214.316406 Z M 160.382812 160.316406 " clip-rule="nonzero"/></clipPath></defs><g clip-path="url(#a09a65cfe6)"><path fill="#d88653" d="M 214.484375 213.761719 L 188.160156 174.273438 L 196.796875 161.3125 C 196.96875 161.058594 196.898438 160.714844 196.644531 160.546875 C 196.390625 160.378906 196.046875 160.445312 195.878906 160.699219 L 187.496094 173.277344 L 179.109375 160.699219 C 178.941406 160.445312 178.597656 160.378906 178.34375 160.546875 C 178.089844 160.714844 178.023438 161.058594 178.191406 161.3125 L 186.828125 174.273438 L 160.503906 213.761719 C 160.390625 213.933594 160.378906 214.152344 160.476562 214.332031 C 160.570312 214.507812 160.757812 214.621094 160.964844 214.621094 L 214.023438 214.621094 C 214.230469 214.621094 214.417969 214.507812 214.511719 214.328125 C 214.609375 214.148438 214.597656 213.933594 214.484375 213.761719 Z M 191.363281 212.734375 L 188.828125 210.199219 L 191.363281 210.199219 Z M 186.941406 209.648438 C 186.941406 209.71875 186.957031 209.792969 186.984375 209.859375 C 187.011719 209.929688 187.054688 209.988281 187.105469 210.039062 L 190.582031 213.515625 L 176.734375 213.515625 L 186.941406 198.207031 Z M 192.46875 213.515625 L 192.46875 209.648438 C 192.46875 209.34375 192.222656 209.09375 191.917969 209.09375 L 188.046875 209.09375 L 188.046875 198.207031 L 198.253906 213.515625 Z M 199.582031 213.515625 L 187.953125 196.074219 C 187.945312 196.066406 187.933594 196.0625 187.925781 196.050781 C 187.824219 195.921875 187.671875 195.832031 187.496094 195.832031 C 187.316406 195.832031 187.164062 195.921875 187.0625 196.050781 C 187.054688 196.0625 187.042969 196.066406 187.035156 196.074219 L 175.40625 213.515625 L 161.996094 213.515625 L 187.496094 175.269531 L 212.992188 213.515625 Z M 199.582031 213.515625 " fill-opacity="1" fill-rule="nonzero"/></g><g fill="#000000" fill-opacity="1"><g transform="translate(100.231184, 213.871497)"><g><path d="M 38.125 0 L 2.015625 0 L 2.015625 -8.578125 L 26.6875 -40.34375 L 26.453125 -41.046875 L 3 -41.046875 L 3 -49.1875 L 37.890625 -49.1875 L 37.890625 -40.609375 L 13.21875 -8.84375 L 13.453125 -8.140625 L 38.125 -8.140625 Z M 38.125 0 "/></g></g></g><g fill="#000000" fill-opacity="1"><g transform="translate(140.398287, 213.871497)"><g><path d="M 10 -41.546875 C 8.3125 -41.546875 6.941406 -42.054688 5.890625 -43.078125 C 4.835938 -44.097656 4.3125 -45.414062 4.3125 -47.03125 C 4.3125 -48.625 4.835938 -49.929688 5.890625 -50.953125 C 6.941406 -51.972656 8.3125 -52.484375 10 -52.484375 C 11.113281 -52.484375 12.109375 -52.25 12.984375 -51.78125 C 13.859375 -51.3125 14.535156 -50.664062 15.015625 -49.84375 C 15.503906 -49.03125 15.75 -48.09375 15.75 -47.03125 C 15.75 -45.976562 15.503906 -45.035156 15.015625 -44.203125 C 14.535156 -43.378906 13.859375 -42.726562 12.984375 -42.25 C 12.109375 -41.78125 11.113281 -41.546875 10 -41.546875 Z M 5.34375 0 L 5.34375 -37.109375 L 14.671875 -37.109375 L 14.671875 0 Z M 5.34375 0 "/></g></g></g><g fill="#d88653" fill-opacity="1"><g transform="translate(213.185381, 213.545933)"><g><path d="M 5.34375 0 L 5.34375 -37.109375 L 14.390625 -37.109375 L 14.390625 -31.59375 L 15.109375 -31.453125 C 16.003906 -33.515625 17.179688 -35.023438 18.640625 -35.984375 C 20.097656 -36.953125 21.867188 -37.4375 23.953125 -37.4375 C 26.054688 -37.4375 27.660156 -37.078125 28.765625 -36.359375 L 27.171875 -28.328125 L 26.46875 -28.1875 C 25.863281 -28.4375 25.28125 -28.613281 24.71875 -28.71875 C 24.164062 -28.832031 23.484375 -28.890625 22.671875 -28.890625 C 20.066406 -28.890625 18.082031 -27.972656 16.71875 -26.140625 C 15.351562 -24.316406 14.671875 -21.390625 14.671875 -17.359375 L 14.671875 0 Z M 5.34375 0 "/></g></g></g><g fill="#d88653" fill-opacity="1"><g transform="translate(242.283906, 213.545933)"><g><path d="M 14.46875 0.703125 C 12.09375 0.703125 10.03125 0.265625 8.28125 -0.609375 C 6.53125 -1.484375 5.179688 -2.765625 4.234375 -4.453125 C 3.296875 -6.148438 2.828125 -8.1875 2.828125 -10.5625 C 2.828125 -12.757812 3.296875 -14.601562 4.234375 -16.09375 C 5.179688 -17.582031 6.640625 -18.800781 8.609375 -19.75 C 10.585938 -20.707031 13.164062 -21.445312 16.34375 -21.96875 C 18.5625 -22.320312 20.25 -22.710938 21.40625 -23.140625 C 22.5625 -23.566406 23.34375 -24.046875 23.75 -24.578125 C 24.15625 -25.117188 24.359375 -25.804688 24.359375 -26.640625 C 24.359375 -27.828125 23.941406 -28.734375 23.109375 -29.359375 C 22.273438 -29.992188 20.894531 -30.3125 18.96875 -30.3125 C 16.90625 -30.3125 14.941406 -29.847656 13.078125 -28.921875 C 11.222656 -28.003906 9.609375 -26.796875 8.234375 -25.296875 L 7.5625 -25.296875 L 3.671875 -31.1875 C 5.546875 -33.269531 7.835938 -34.894531 10.546875 -36.0625 C 13.265625 -37.226562 16.226562 -37.8125 19.4375 -37.8125 C 24.351562 -37.8125 27.910156 -36.765625 30.109375 -34.671875 C 32.304688 -32.585938 33.40625 -29.628906 33.40625 -25.796875 L 33.40625 -9.6875 C 33.40625 -8.03125 34.132812 -7.203125 35.59375 -7.203125 C 36.15625 -7.203125 36.703125 -7.300781 37.234375 -7.5 L 37.703125 -7.359375 L 38.375 -0.875 C 37.863281 -0.539062 37.144531 -0.265625 36.21875 -0.046875 C 35.300781 0.160156 34.296875 0.265625 33.203125 0.265625 C 30.984375 0.265625 29.25 -0.15625 28 -1 C 26.757812 -1.851562 25.867188 -3.191406 25.328125 -5.015625 L 24.625 -5.078125 C 22.800781 -1.222656 19.414062 0.703125 14.46875 0.703125 Z M 17.421875 -6.25 C 19.578125 -6.25 21.296875 -6.972656 22.578125 -8.421875 C 23.867188 -9.867188 24.515625 -11.882812 24.515625 -14.46875 L 24.515625 -18.234375 L 23.890625 -18.359375 C 23.328125 -17.910156 22.585938 -17.535156 21.671875 -17.234375 C 20.765625 -16.929688 19.460938 -16.632812 17.765625 -16.34375 C 15.742188 -16.007812 14.289062 -15.429688 13.40625 -14.609375 C 12.519531 -13.796875 12.078125 -12.640625 12.078125 -11.140625 C 12.078125 -9.546875 12.546875 -8.332031 13.484375 -7.5 C 14.429688 -6.664062 15.742188 -6.25 17.421875 -6.25 Z M 17.421875 -6.25 "/></g></g></g></svg>